<?xml version="1.0" standalone="no"?><!DOCTYPE svg PUBLIC "-//W3C//DTD SVG 1.1//EN" "http://www.w3.org/Graphics/SVG/1.1/DTD/svg11.dtd"><svg t="1645783637271" class="icon" viewBox="0 0 1024 1024" version="1.1" xmlns="http://www.w3.org/2000/svg" p-id="769" xmlns:xlink="http://www.w3.org/1999/xlink" width="16" height="16"><defs><style type="text/css"></style></defs><path d="M907.946667 1024h-785.066667V0h785.066667v1024z m-716.8-68.266667h648.533333V68.266667h-648.533333v887.466666z" fill="#191919" p-id="770"></path><path d="M489.813333 256h68.266667v290.133333h-68.266667z" fill="#00C97C" p-id="771"></path><path d="M345.736533 416.017067l48.264534-48.264534 170.154666 170.154667-48.264533 48.264533z" fill="#00C97C" p-id="772"></path><path d="M482.269867 539.101867l170.154666-170.154667 48.264534 48.2816-170.154667 170.154667z" fill="#00C97C" p-id="773"></path><path d="M191.146667 716.8h648.533333v68.266667h-648.533333zM515.413333 938.666667c-37.546667 0-68.266667-30.72-68.266666-68.266667s30.72-68.266667 68.266666-68.266667 68.266667 30.72 68.266667 68.266667-30.72 68.266667-68.266667 68.266667z m0-68.266667z" fill="#191919" p-id="774"></path></svg>