<?xml version="1.0" standalone="no"?><!DOCTYPE svg PUBLIC "-//W3C//DTD SVG 1.1//EN" "http://www.w3.org/Graphics/SVG/1.1/DTD/svg11.dtd"><svg t="1645865005993" class="icon" viewBox="0 0 1024 1024" version="1.1" xmlns="http://www.w3.org/2000/svg" p-id="2068" xmlns:xlink="http://www.w3.org/1999/xlink" width="16" height="16"><defs><style type="text/css"></style></defs><path d="M236.26 319.439c0 23.249-18.847 42.136-42.137 42.136-23.291 0-42.137-18.887-42.137-42.136 0-23.291 18.846-42.178 42.137-42.178 23.29 0 42.137 18.888 42.137 42.178zM236.26 544.154c0 23.29-18.847 42.137-42.137 42.137-23.291 0-42.137-18.847-42.137-42.137s18.846-42.137 42.137-42.137c23.29 0.001 42.137 18.847 42.137 42.137zM236.26 761.833c0 23.29-18.847 42.178-42.137 42.178-23.291 0-42.137-18.888-42.137-42.178 0-23.25 18.846-42.137 42.137-42.137 23.29 0 42.137 18.887 42.137 42.137zM889.377 359.5H383.738c-23.291 0-42.137-18.71-42.137-42 0-23.291 18.846-42 42.137-42h505.639c23.291 0 42.137 18.709 42.137 42 0 23.29-18.846 42-42.137 42zM889.377 570.5H383.738c-23.291 0-42.137-18.709-42.137-42 0-23.29 18.846-42 42.137-42h505.639c23.291 0 42.137 18.71 42.137 42 0 23.291-18.846 42-42.137 42zM889.377 804.011H383.738c-23.291 0-42.137-18.847-42.137-42.137 0-23.291 18.846-42.137 42.137-42.137h505.639c23.291 0 42.137 18.846 42.137 42.137 0 23.29-18.846 42.137-42.137 42.137z" fill="#ffffff" p-id="2069"></path></svg>